<?xml version="1.0" encoding="UTF-8"?>
<svg version="1.1" viewBox="0 0 1600 1144" width="586" height="419" xmlns="http://www.w3.org/2000/svg">
<path transform="translate(0)" d="m0 0h1600v1144h-1600z" fill="#FDFDFD"/>
<path transform="translate(386,770)" d="m0 0h99l34 1 44 3 5 1 28 2 16 4 15 4 10 4 9 4 1 57 4 8 5-3 9-7 14-7 12-4h28l9 2 14 8 10 9h1l1-14 1-5h53l2 1 1 5 9-5 4-1h20l57 1 1 3 16-4 8-1h9l10 2 11 6 5 3 10-6 8-3 6-1h19l12 4 6 3v2l5 2 6 8 6 12v2l8-7 10-9 16-8 13-3 6-1h17l17 4 14 7 10 9 3 4v2h2l2 3 1-2 1-19h56v6l11-5 11-3h17l11 4 11 8 8 10 3 5h2l7-8 9-7 13-5 4-1h27l12 3 9 5 10 9 3 7v15l-3 12-5 8-5 4 2 4 3 3v2h2l5 8 5 13v23l-4 12-6 11-4 5-15 9-15 6-11 2h-27l-85-5-81-3-112-2-86-1h-96l-78 1-71 2-42 2-30 1-6 1-29 2-22 1 2 1h33l71-2 78-1h37l144 1 103 6 46 4 76 8 65 9 57 8 42 5 2 2-2 1-21-1-153-11-101-4-34-1h-218l-78 2-46 2-66 4-50 4-17 1-64 7-24 3-25 3-12 2-30 4-16 2-44 8-32 6-24 5-12 3-13 2h-15l-17-4-16-5-12-4v-3l11-3 25-7 27-7 14-4 22-5 24-6 20-4 18-4 20-3 8-2 1-19-10 2-24 3-20 3-28 3-68 9-54 8-24 4-17 3-48 8-3 1h-7v-252l15-4 30-5 17-3 21-4 76-10 37-4 63-6 49-2z" fill="#05386E"/>
<path transform="translate(556,445)" d="m0 0h25l1 1v128h-53l-29 3-31 5-26 6-41 13h-4l1-4 13-10 11-5 28-9 38-10 30-5v-3h2l1-5 2-5-24 1-21 3-23 5-31 9-7 2h-5l1-7 8-6 25-10 26-8 25-7 11-2-3-4 2-7-28 4-47 10-1-4 6-8 3-3 16-6 40-10 10-2-3-5h-14l-30 4-6 1h-10l2-5 8-6 6-3 17-5h2l-1-3h-8l-34 6-14 3-2 5-8 16-13 28-16 35-16 36-13 29 34-9 35-8 35-6 31-4 33-2h26l24 2 37 6 31 8 20 7 23 10 16 8 16 9 16 11 12 9 15 15 9 13 4 11v2l9-2h23l14 4 11 6h2l7-8 16-13 16-9 12-6 20-8 31-9 29-6 34-4 20-1h73l38 3 32 4 52 10 64 14 21 4h4l-11-23-60-120-8-14-8-16-10-18-2-4 6 1 25 7 4 4 10 17 7 11 5 7 4 7 6 10 6 9 5 9 6 10 4 7 7 11 8 13 6 9 5 9 11 18 5 7 6 11 7 11 10 16 12 19 3 8-1 7-4 7-11 6h-14l-23-5-36-6-15-3-79-9-60-3h-67l-55 2-22 2-25 3-19 3-36 8-25 7-14 6-18 10-17 6-19 5h-29l-3-1-16-2-9-3-14-5-16-8-18-10-1 29h-3l-8-9-8-7-11-11-7 6-15 15-2-2-1-14 1-16-16-2-16-3-14-2-47-4-26-2h-78l-38 2-23 2-50 5-50 7-32 6-19 3h-9l-9-3-7-8-1-2v-12l10-18 12-20 16-26 6-9 6-11 4-7 8-13 4-7h2l1-4 16-26 18-30 8-14 5-7 6-11 6-9 2-4 15-6 11-3 7-2-6 11-12 23-10 19-11 22-9 19-10 19-12 25-20 40-5 13-3 6 25-5 1-6 16-34 11-24 13-28 16-34 12-24 9-20 14-29 10-17 5-3 39-10 33-7 28-4z" fill="#E2D1B2"/>
<path transform="translate(644,267)" d="m0 0h19l16 5 16 7 36 18 22 12 27 15 28 15 24 13 13 8 26 14 25 13 21 12 27 14 22 13 10 7 12 12 6 11 1 4v14l-3 9-5 8-17 13-23 13-15 9-46 26-25 14-28 16-24 14-21 12-22 13-21 12-14 9-5-1-18-11-23-12-31-13-37-13-4-4-5-11-2-11v-196l1-56 4-15 7-14 9-10 10-6z" fill="#D61217"/>
<path transform="translate(1017,448)" d="m0 0h19l35 4 41 7 31 7 25 7 5 5 9 15 10 21 8 15 13 28 9 17 15 33 24 50 7 15 6 16-9-1-70-15-44-8-35-4-28-2h-73l-31 2-29 4-27 6-30 9-26 11-19 11-13 11-8 7-2 3-5-2-11-5-11-3-1-1 1-9 8-14 10-11 7-8 9-8 18-13 19-12 24-11 27-9 25-6 25-4 38-3h52l26 2 32 4 38 7 52 13 9 3-12-25-12-28-9-20-19-40-13-27-3-4-24-5-18-3-15-1-1 5 2 3 24 8 16 8 1 3-1 2h-11l-24-4-16-2-16-1-1 5 3 4 29 8 21 6 23 10 9 7 1 5-5 1-21-6-25-6-25-4-10-1h-29l-5 2-3 5v3l40 7 25 6 33 11 24 10 15 8 3 4-2 3-16-4-26-8-34-8-30-5-29-3-16-1h-15l-5 1-2 7-2 3 21 1 20 3 14 4v4l-11 1-40 1-31 3-27 4-24 6-20 7-33 16-21 14-6 3-2 3-5 2-3 4-5 3-1 2-5 3-14 14-3 5-2 1-2 4h-2l-1 4-3 3-3 7h-2v-3h-2v-3h-2v-3l-3-1v-3l-3-1-1-4-4-2-4-5-6-5-8-8 5-5 27-16 18-11 21-12 22-12 26-15 46-25 29-16 14-8 20-11 12-8 13-11 9-14 4-10 1-5v-12l-2-10z" fill="#E2D1B2"/>
<path transform="translate(1200,497)" d="m0 0 6 1 25 7 4 4 10 17 7 11 5 7 4 7 6 10 6 9 5 9 6 10 4 7 7 11 8 13 6 9 5 9 11 18 5 7 6 11 7 11 10 16 12 19 3 8-1 7-4 7-11 6h-14l-23-5-36-6-15-3-79-9-60-3h-67l-55 2-22 2-25 3-19 3-36 8-25 7-14 6-18 10-17 6-19 5h-29l-3-1-16-2-9-3-14-5-16-8-18-10-1-1v-54l2-1 20 10 11 7 12 11 4 5 4-1 14-7 11-3h23l14 4 11 6h2l7-8 16-13 16-9 12-6 20-8 31-9 29-6 34-4 20-1h73l38 3 32 4 52 10 64 14 21 4h4l-11-23-60-120-8-14-8-16-10-18z" fill="#04386E"/>
<path transform="translate(374,496)" d="m0 0 2 1-10 18-14 26-15 30-9 19-10 19-12 25-20 40-5 13-3 6 69-14 48-10 27-5 51-6 15-1h62l33 2 38 6 26 6 1 2v58l-1 5-15-2-16-3-14-2-47-4-26-2h-78l-38 2-23 2-50 5-50 7-32 6-19 3h-9l-9-3-7-8-1-2v-12l10-18 12-20 16-26 6-9 6-11 4-7 8-13 4-7h2l1-4 16-26 18-30 8-14 5-7 6-11 6-9 2-4 15-6 11-3z" fill="#04386E"/>
<path transform="translate(761,56)" d="m0 0h54l26 3 37 7 26 7 26 10 12 6 10 4 22 12 19 11 10 7 5 3v2l5 2 6 4v2l4 2 9 6v2l4 2 8 7 8 8 8 7 13 13-5 4-8 8-8 7-15 13-7-6-9-10-7-7-11-9-13-11-17-12-14-9-12-7-16-8-21-9-19-7-27-7-27-5-15-2-16-1h-39l-28 3-31 6-25 7-26 10-29 14-22 13-16 12-13 10-13 11-7 8-17 17-7-6-11-10-14-11-5-4 1-4 3-1 2-4 22-22 8-7 11-9 19-14 19-13 18-10 12-7 23-10 18-7 26-8 17-4 10-2 24-4z" fill="#FFAF21"/>
<path transform="translate(766,137)" d="m0 0h48l22 3 26 5 26 8 14 5 30 15 17 10 13 9 2 1v2l4 2 13 10 13 12 8 9 8 7-2 4-13 12-15 12-5-2-19-19-16-12-19-12-15-8-23-11-18-6-30-7-27-3h-35l-27 3-26 6-27 9-19 9-19 11-16 11-13 10-11 9-9 10-4 3-13-10-14-11-7-6 1-4 25-25 14-11 16-11 20-12 17-9 13-5 25-10 25-7 24-4z" fill="#FFA822"/>
<path transform="translate(988,447)" d="m0 0 3 3 4 10v14l-3 9-5 8-17 13-23 13-15 9-46 26-25 14-28 16-24 14-21 12-22 13-21 12-14 9-5-1-18-11-23-12-31-13-37-13-4-4-5-11-2-11v-81l1-22h1l1 76 4-4 2-14 1-15 1-6 2-11 5-14 4-2 1 2 1 13 1 34 2 29 2 16 4 9 5 1 10-6 8-7 10-8 4-2v-2l28-22 11-8 7-2 1 23 1 6 6 4h6l10-5 11-7 2 1-3 3h-2l-1 3h-2v2l-2 2v4l9-5 6 1 3 5 15 10 8 5 7-1 13-5 14-7 15-8 21-13 13-8 19-10 13-8 16-10 11-6 15-8 15-10 5-4 1-2h2l3-9 2-10 5-2h4l2-2z" fill="#9E0D11"/>
<path transform="translate(731,363)" d="m0 0 7 1 10 5 15 9 22 13 19 11 11 6 7 5 11 6 11 7 15 9 18 11 5 4 3 5v8l-5 5-9 6-51 30-25 15-17 10-26 16-11 7-5 2h-6l-7-5-1-8v-168l2-5z" fill="#FCFCFA"/>
<path transform="translate(921,846)" d="m0 0h16l12 6 7 7 3 5 3-1 1-3 10-8 9-4 4-1h17l11 4 2 1v2l4 2 4 5 4 9 2 12v98h-37l-1-2-1-88-2-5-4-2h-11l-8 7-3 7-1 81h-38v-77l-1-12-4-5-2-1h-10l-8 7-3 6-1 50-1 31h-38v-129l1-1h34l1 1 2 17 4-6 8-7 12-5z" fill="#FCFCFB"/>
<path transform="translate(155,817)" d="m0 0h15l13 2 9 3 12 6 8 7 5 8 5 14 1 5v22l-5 18-4 8-7 9-7 7-9 6-16 7-16 4-7 1h-10v35l-1 32-31 5h-6l-1-8v-183l1-1 41-6z" fill="#FCFBFB"/>
<path transform="translate(586,792)" d="m0 0h16l20 4 15 5v7l-4 21-3 11-18-7-8-2h-22l-6 3-3 3h-2l-1 12 4 6v2l44 22v2l5 2 8 8 6 10 4 13 1 5v10l-2 11-3 10-6 10-9 9h-2v2l-17 9-7 2-15 2h-15l-15-2-20-6-9-5-2-2 1-11 5-18 1-6 23 10 12 3h17l12-5 3-1 3-6v-12l-4-6-8-6-31-15-11-8-7-7-6-12-3-8-2-12 1-14 4-11 6-10 11-10 10-5 15-5z" fill="#FCFCFC"/>
<path transform="translate(751,1012)" d="m0 0h37l144 1 103 6 46 4 76 8 65 9 57 8 42 5 2 2-2 1-21-1-153-11-101-4-34-1h-218l-78 2-46 2-28 1v-1l7-1 34-2 2-1-11-1h-25l-10-3 1-3 6-4v-4l-2-5 1-2-83 1-67 3h-12v-2l5-1 66-5h13l2 2h33l71-2z" fill="#0B8CC8"/>
<path transform="translate(1097,478)" d="m0 0 15 1 33 6 9 2 6 9 17 35 13 28 11 24 12 28 9 19v2l-9-2-52-13-38-7-32-4-26-2v-1l10-1 8 1-4-2h16v-2l-5-2-1-5-44-6h-59v-1l14-1 40-1 11-1v-2l-14-4-20-3-21-2 2-4 2-7 5-1h15l28 2 31 4 34 7 30 8 22 7 6 1 1-3-9-6-19-9-30-11-27-8-30-6-24-4-1-4 3-5 2-2 4-1h29l22 3 22 4 31 8 9 2h2l-3-6-11-7-25-10-32-9-12-3-4-6 2-4h16l29 4 11 2 11 1v-4l-16-8-24-8-3-4 1-5z" fill="#FEFCF0"/>
<path transform="translate(1090,853)" d="m0 0h22l9 2 11 5 5 3v2l4 2 7 8 8 16 3 9 1 5v25l-2 12-4 12-6 11h-2l-2 4-5 5h-2v2l-10 6-9 4-5 1h-21l-16-5-9-5-10-9-4-5v-2h-2l-4-7-4-12-2-14v-21l5-21 6-10 9-10 5-4 12-6z" fill="#FDFCFC"/>
<path transform="translate(327,854)" d="m0 0h27l12 4 10 8 5 6 4 10 2 9 1 71 2 3 7 2-1 19-9 4-16 1-10-4-5-6-3-7h-3v3h-2l-2 4-4 4h-2v2l-10 5-6 1h-16l-10-3-9-7-6-12-2-11 1-13 4-11 6-9 9-8 12-6 18-4 14-1 5-1v-9l-2-7-5-4-2-1h-18l-12 4-7 4h-2v2l-3-1-8-22v-4l15-9 16-5z" fill="#FCFCFB"/>
<path transform="translate(479,848)" d="m0 0h37l-2 9-7 23-8 24-14 43-11 34-5 11-4 9-8 14-8 10-8 8-17 8-4 1h-17l-5-3v-14l1-14 13-1 11-4 8-9 5-13 1-9-5-15-5-11-12-31-6-15-5-12-5-13-7-18-3-5v-3l5-1 15-1h20l17 48 9 30 1 6 2 1 1-9 3-12 3-15 12-44z" fill="#FCFCFC"/>
<path transform="translate(1237,858)" d="m0 0h17l7 3 9 7 5 8 3 12 1 6v98l-5 1-34-2-1-89-4-6-3-2h-10l-4 1v2l-5 4-2 3-1 71-1 14h-16l-22-1-1-128h14l23 1v17h2l2-5 5-5 9-7z" fill="#FCFCFB"/>
<path transform="translate(698,846)" d="m0 0h18l11 3 9 5 6 5 7 11 5 16 1 7v22l-1 3-3 1-21 2-4 1-19 2h-21l4 12 6 8 5 3 6 2h14l16-6 3-2h4l7 22v6l-16 8-12 3-7 1h-22l-12-4-11-6-10-10-5-9-4-8-2-8-2-17 1-22 3-13 7-14 9-10 7-6 10-5z" fill="#FCFCFB"/>
<path transform="translate(470,472)" d="m0 0h9v4l-22 7-11 8-1 3h9l26-4 10-1h14l3 4v2l-10 3-24 6-19 5-13 5-7 8-1 5 47-10 21-3h7l-1 7 2 4-5 2-21 5-30 9-27 10-10 6-2 3-1 5 19-5 27-8 24-5 17-2 22-1 2 1-1 5-2 5h-2v3l-12 3-22 4-41 11-26 9-9 5-10 8-1 3 38-12 19-5 14-3 4 1-25 6-7 4v6l5 3 2 1 10 1v1h19l13-2 11 1v1l-36 4-36 6-36 8-36 9h-3l3-9 13-29 19-42 17-37 11-24 5-8 9-3 32-6z" fill="#FFFCF0"/>
<path transform="translate(773,214)" d="m0 0h36l21 3 28 7 23 8 20 10 21 14 12 9v2l4 2 11 9 4 4-1 4-5 4h-2l-2 4-16 12-3 1-10-9-13-10-18-11-10-5-19-8-18-5-25-4h-38l-19 3-16 5-11 4-6-1-16-9-23-12v-2l26-13 22-8 21-5z" fill="#FFA822"/>
<path transform="translate(1324,863)" d="m0 0h22l16 4 9 6 2 2v10l-2 14-1 2-5-1-8-4-13-4h-6l-9 3v9l3 4v2l5 2 21 12 10 8 6 9 3 11v13l-2 9-8 13-6 5-12 5-10 2h-14l-16-3-12-4-9-6 1-11 5-18 4 2 10 6 10 3h13l7-3 2-4-1-9h-2v-2l-4-2-23-12-10-9-4-5-3-7-1-3v-18l4-11 6-8 8-7z" fill="#FCFCFC"/>
<path transform="translate(929,84)" d="m0 0 6 1 7 4 10 4 22 12 19 11 10 7 5 3v2l5 2 6 4v2l4 2 9 6v2l4 2 8 7 8 8 8 7 13 13-5 4-8 8-8 7-15 13-7-6-9-10-7-7-11-9-13-11-17-12-14-9-12-7-12-6v-5l-2-1v-2l-10-8-4-5-1-7-6-1v-4l5-2 2-5 9-3-2-5 1-5z" fill="#FE8E1D"/>
<path transform="translate(261,804)" d="m0 0h10l1 162v30l-32 4h-6l-1-1v-152l1-40z" fill="#FBFBFB"/>
<path transform="translate(830,846)" d="m0 0 15 1 2 1-2 30-1 7h-15l-10 5-3 3h-2l-2 4-4 10-2 11-1 59h-38v-129h35l1 20h2l1-4 6-8 7-6 6-3z" fill="#FDFDFD"/>
<path transform="translate(1237,848)" d="m0 0h17l11 4 11 8 8 10 3 5h2l7-8 9-7 13-5 4-1h27l12 3 9 5 10 9 3 7v15l-3 12-5 8-5 4 2 4 3 3v2h2l2 5-3 1-2 1v2l-4-2-1-3-7-2-11-7-14-8-5-3-4-6v-7l4-4 6-2 9 1 15 5 8 4 2-16v-10l-8-6-9-3-9-2h-22l-14 5-10 9-6 12-1 4v18l3 8 4 6 7 7 16 9 11 6 3 2v2h2l2 4-1 7-5 5-4 1h-13l-10-3-10-6-4-3-1 6-3 12-2-2-1-4-3-2-1-12 1-36v-7l1-5-2-10v-2l-3-1 1-14-3-7-4-5-4-2h-3l-7-5-6-2h-17l-12 3-9 7h-2l-2 4-3 5h-2v-17h-23l-14-1 1 13v88h-1l-1-73-1-9-4 8-4-3v-10l-3-1 1-4 1-19h56v6l11-5z" fill="#0D4D88"/>
<path transform="translate(658,285)" d="m0 0 9 1 17 6 23 10 19 10 16 9 16 8 22 12 9 5 20 11 8 4v2h2l5 6 8 4 1 2h-3l3 2v2l7 1 8 4-4 1-13-5-19-8-14-7-26-12-21-10-7-3-46-21-18-6-9 1-8 6-3 8-2 16-1 19-2 72-2-1v-2h-2l-1-6-3-1 1-4-1-6-2 1-3-6-2-1v-2l-3 2-2 5h-3v-83l2-15 5-16 6-8 8-5z" fill="#EC4C3F"/>
<path transform="translate(887,159)" d="m0 0 8 1 3 1 4-1 6 1 16 8 17 9 18 12 5 3v2l4 2 13 10 13 12 8 9 8 7-2 4-13 12-15 12-5-2-19-19-16-12-19-12-15-8-6-3-5-5-2-7-7-3-5-5-7-6-5-2-7-1-3-3v-4l7-3 5-1 8 2 8 1v-4l-5-2v-3z" fill="#FD8E1D"/>
<path transform="translate(1035,678)" d="m0 0h57l39 3 33 4 17 3 43 7 15 4 4 2 5 5 2 3h-12l-57-7-41-3-7-1-18-1h-81l-63 5-44 7-38 9-14 3-4-4v-5l6-4 21-8 16-5 16-4 33-6 30-4 23-2z" fill="#0196D4"/>
<path transform="translate(751,1012)" d="m0 0h37l78 1 8 1v1l-23 1-17 4-14 2-4 1-1 7 11 2 15 3 3 1 118 1v1l-168 1-78 2-46 2-28 1v-1l7-1 34-2 2-1-11-1h-25l-10-3 1-3 6-4v-4l-2-5 1-2-83 1-67 3h-12v-2l5-1 66-5h13l2 2h33l71-2z" fill="#0960A4"/>
<path transform="translate(471,679)" d="m0 0h68l34 3 23 3 16 4 34 7v14h-8l-28-5-33-4-49-3h-57l-57 3-54 6-24 3h-7v-6l3-4 26-6 51-9 34-4z" fill="#0196D5"/>
<path transform="translate(816,138)" d="m0 0 15 1 31 6 26 8 14 5v3l-5 1-6-2-9 1v3l5 2v4h-8l-10-2-10 3 2 5 1 1 9 1 9 7 5 5 4 3 5 2 1 7 5 2-1 2-5-2-19-8-14-4-26-6-42-5-2-4-5-1v-2h-15l-9-3-7-4-5-6v-4l5-3 5-1-1-2 11-3 1-2-2-1 8-1 8-3 29-2z" fill="#FE9E20"/>
<path transform="translate(926,836)" d="m0 0h9l10 2 11 6 5 3 10-6 8-3 6-1h19l12 4 6 3v2l5 2 6 8 4 7-1 2h-2l-3 4-4-9-4-5v-2h-2v-2l-7 1-11-4h-17l-11 4-8 6-8 7-3-4-7-8-12-6h-16l-13 5-6 4-6 7-3 3-2-18h-34l-1 121h-1l-1-83-1 1-1 12-2 7-3 14-1 2h-2l-2-5-3-15-6-4v-4l6-2 2-5-2-1-10-1v-1h11l4 1 1-22 2-15-17-1-9 3-8 6-7 9-1 3h-2l-1-6v-14h-35v123h-1l-1-121-2 3v8l-2 9-4 1-8-7-1-6 2-2h3l1-14 1-5h53l2 1 1 5 9-5 4-1h20l57 1 1 3 16-4z" fill="#084886"/>
<path transform="translate(647,672)" d="m0 0 8 1 28 8 18 7 2 2-1 84h-3l-8-9-8-7-11-11-7 6-15 15-2-2-1-14z" fill="#FEAE21"/>
<path transform="translate(562,1017)" d="m0 0h83l1 5 2 5-6 5-3 3 10 2h26l22 2v1l-48 3-14 2-70 5-15 1 3-2 11-1 1-1h-22l-16-1-13-2-2-12 4-4 1-3 6-3h-48l1-3 3-1h9v1h-5v2l34-2z" fill="#064887"/>
<path transform="translate(599,779)" d="m0 0 13 2 15 4 10 4 9 4 1 57 4 8 5-3 9-7 14-7 12-4h28l9 2 14 8 6 5-1 2-4-1-3 2-3 1-8-5-4-2-9-2h-18l-13 3-11 6-10 9-3-2-9 6h-2v2h-2l-1 3-6 4h-10l-13-5-14-9-6-3-4-5-10-4h-4l-3-5 1-5h5l1 4 8 2 1-4-2-2v-3l6-2h6l12 3h10l2-2h3l5-25 2-12-12-3-11-3-12-2v-1h8l-4-3-9-1-3-3 3-5z" fill="#074785"/>
<path transform="translate(878,232)" d="m0 0 5 1 23 12 16 11 12 9v2l4 2 11 9 4 4-1 4-5 4h-2l-2 4-16 12-3 1-10-9-13-10-18-11-10-5-13-6 1-2-1-6h5l-4-4-4-2 1-5-3-1 4-4 7-1 1 1 12-3 4-3-5-3z" fill="#FE9E20"/>
<path transform="translate(868,588)" d="m0 0h2l-2 5-3 3h-2v2l-9 3-7 2-3 3h-3l-1 2-4 1 1 13 1 5 7 2-4 7-5 5-5 2-3 4-5 3-1 2-5 3-14 14-3 5-2 1-2 4h-2l-1 4-3 3-3 7h-2v-3h-2v-3h-2v-3l-3-1v-3l-3-1-1-4-4-2-4-5-6-5-8-8 5-5 27-16 18-11 10-4 24-13 16-9z" fill="#9BA2A1"/>
<path transform="translate(929,84)" d="m0 0 6 1 7 4 10 4 22 12 19 11 1 3-3 2v9l-12 7-4 6 2 2-1 4-9 2h-2l-1 3-17-10-12-6v-5l-2-1v-2l-10-8-4-5-1-7-6-1v-4l5-2 2-5 9-3-2-5 1-5z" fill="#FE9E1F"/>
<path transform="translate(867,65)" d="m0 0h7l23 6 21 7 12 5-3 3 1 9-9 3-2 5-5 3v2l6 2 3 8 5 6 9 7 1 6-5-1-21-9-19-7-24-7 3-1v-4l-10-3-4-3 2-1-1-7-2-2 3-1 4-8-4-2 3-2 11-2-2-4-6-3 1-4z" fill="#FFA722"/>
<path transform="translate(866,1013)" d="m0 0h66l54 3 9 1-2 2h-23l-4 1-7-1-19 3-14 4-1 1 8 1 19 4 13 2 2 1 42 1v1l-28 1-137-1-11-3-15-3-3-1-1-5h2v-2l9-3 13-2 13-3 15-1z" fill="#0478BF"/>
<path transform="translate(1513,940)" d="m0 0h7l5 2 5 6 7-6 4-1h9l6 4 4 6 1 4v47h-13l-1-1-1-45-2-2-7 1-3 4-1 43h-13l-1-1-1-43-4-4-5 1-3 5-1 42h-13l-1-1v-60h12v5l5-3z" fill="#0F7ABD"/>
<path transform="translate(71,808)" d="m0 0h6l-4 8-1 4v16l1 3v24l1 12 1 3 1 36v20l1 22v2 9l-1 1 1 4v9h-2l2 4-1 8 1 2v14l-1 21 1 4-1 1v17h13l37-6 19-3 7-2 14-2 2-1 9-1 10-3 15-4 45-1 5-1 6 2-1 2-70 10-44 7-17 3-48 8-3 1h-7v-252z" fill="#022C5F"/>
<path transform="translate(1096,882)" d="m0 0h9l6 4 6 7 3 9 1 5v26l-4 13-5 6-5 3h-11l-8-7-5-10-2-7v-24l2-11 5-8z" fill="#04386E"/>
<path transform="translate(147,850)" d="m0 0h22l9 5 6 9 1 5v13l-3 12-6 8-8 6-12 4h-15v-61z" fill="#04376D"/>
<path transform="translate(1456,939)" d="m0 0h14l6 3 5 6 3 6 2 14-1 15-4 9-5 6-9 3h-9l-8-4-6-7-3-9v-23l4-10 5-6z" fill="#136FB3"/>
<path transform="translate(751,1012)" d="m0 0h37l78 1 8 1v1l-23 1-17 4-14 2-4 1-1 7 11 2 15 3 3 1 118 1v1l-168 1-37 1h-21v-1l13-1 37-1-4-2-6-1h-11l-19-2-10-3-3-5v-2l7-2 1-1 21-3 3-1-92-1v-1z" fill="#1974B4"/>
<path transform="translate(102,825)" d="m0 0h1l1 191 33-5h4v-32l1-35 17-2 19-5 16-8 9-7 8-9 5-3-2 6-6 9-5 4-8 6-4 2h-3l-1 2-13 5-3 2-10 2-11 4-2 9v11l1 10v24l-2 5-2 1-2 3-9 2-5 2h-16v-2l-10 1-5-5-2-8v-100l-1-6v-2l1-5-1-2v-5l1-5v-7l1-7 1-35 2-4z" fill="#022C5F"/>
<path transform="translate(433,682)" d="m0 0h10v1l21 4 4 2-1 5-1 2 5 1v1l-57 3-54 6-24 3h-7v-6l3-4 26-6 51-9z" fill="#0288C9"/>
<path transform="translate(1125,681)" d="m0 0 16 1 23 3 17 3 43 7 15 4 4 2 5 5 2 3h-12l-57-7-41-3-7-1-18-1-2-2 1-7 5-3 7-1 1-1z" fill="#0289C9"/>
<path transform="translate(1366,863)" d="m0 0 7 1 7 7 3 7v15l-3 12-5 8-5 4 2 4 3 3v2h2l2 5-3 1-2 1v2l-4-2-1-3-7-2-11-7-14-8-5-3-4-6v-7l4-4 6-2 9 1 15 5 8 4 2-16v-10-4l-1-3-2-1v-2h-3z" fill="#083E73"/>
<path transform="translate(926,836)" d="m0 0h9l10 2 11 6 5 3 10-6 8-3 6-1h19l12 4 6 3v2l5 2 6 8 4 7-1 2h-2l-3 4-4-9-4-5v-2h-2v-2l-7 1-11-4h-17l-11 4-8 6-8 7-3-4-7-8-12-6h-16l-13 5-7 1-3-1-1-5h3l1-6 9-2z" fill="#0D4D88"/>
<path transform="translate(1092,842)" d="m0 0h17l17 4 14 7 10 9v3l1 7-7-2-7-5v-2l-5-2-13-6-7-1h-22l-15 4-12 7-8 8-5 7-2 3-1-3h-5l-2-2v-5l-1-3 8-7 10-9 16-8 13-3z" fill="#0E4C87"/>
<path transform="translate(613,217)" d="m0 0 7 2 6 7h7l4-1 3 1v2l3 1-12 9-16 13-9 10-4 3-13-10-9-7 4-2 6-2 2 1-1-14 2-3 7-2 5-4z" fill="#FE9E20"/>
<path transform="translate(946,688)" d="m0 0 3 1-3 3 9 3 2 1 3 5 5 1v1l-38 6-38 9-14 3-4-4v-5l6-4 21-8 16-5 16-4z" fill="#0276BF"/>
<path transform="translate(1422,938)" d="m0 0h13l5 4-1 10-3 1-5-2h-6l-5 4-3 9v10l3 9 4 4h8l5-2 3 7v5l-11 4h-8l-8-4-7-8-3-10v-21l4-9 6-7z" fill="#0A60A4"/>
<path transform="translate(582,684)" d="m0 0 14 1 16 4 34 7v14h-8l-28-5-33-4-28-2v-1h25l-2-3 2-5 6-1z" fill="#0287C8"/>
<path transform="translate(1226,896)" d="m0 0h3v2h3v3h2l1 7-2 13v29l-1 19-4 6h-5l-1-4-3-9-1-5v-9l-1-16v-9l-2-14 2-5 3-4z" fill="#054685"/>
<path transform="translate(272,804)" d="m0 0h1l1 14 2 7 1 19v28l1 11 1 20-1 25v9l1 5 4-1-1 19 3 14 4 7-1 2-5-3-4-3h-3l-2 18h-1l-1-13z" fill="#022B5D"/>
<path transform="translate(147,850)" d="m0 0h22l9 5 6 9 1 5v13l-3 12-6 8-8 6-12 4h-15v-61zm8 3-4 1v2h-2l-2 6v9l2 13v9l-1 9 3 3 10-1 8-4 1-3h2l6-8 2-6v-12l-1-2-1-6-5-7-9-3z" fill="#022C5F"/>
<path transform="translate(215,910)" d="m0 0 1 2-4 7-4 6-5 4-8 6-4 2h-3l-1 2-13 5-3 2-10 2-11 4-2 9v11l1 10v24l-2 5-2 1-2 3-9 2-5 2h-16v-3l-3-1 27-4h4v-32l1-35 17-2 19-5 16-8 9-7 8-9z" fill="#022F62"/>
<path transform="translate(1290,912)" d="m0 0h3l3 8 4 6 7 7 16 9 11 6 3 2v2h2l2 4-1 7-5 5-4 1h-13l-10-3-10-6-2-4 1-1h19l4-1v-2h-2v-2h-2l-1-4-3-1-7-8-4-4v-2l-3-1-9-14z" fill="#053A70"/>
<path transform="translate(349,930)" d="m0 0h2v16l-2 6-5 6-10 5h-9l-5-4-2-4v-11l7-8 8-4z" fill="#05396E"/>
<path transform="translate(488,657)" d="m0 0h62l26 2 3 2-2 1h-5l-1 1-8 1-18-2-2-1h-31l-5 1-25 3h-30l-8 1-5-2v2h-8l-16 4-2 1-12 1-3-2 2-2 30-5 43-5z" fill="#022F63"/>
<path transform="translate(777,987)" d="m0 0h19l9 4 8 3v4l5 2 7 1 79 1v1l-137 2h-33v-1l14-2 54-1 1-3-8-2-6 1h-14l-6 1-7-3v-4l5-3z" fill="#044584"/>
<path transform="translate(702,875)" d="m0 0 10 1 6 5 3 7v12l-12 1h-23l1-11 5-10 6-4z" fill="#063B71"/>
<path transform="translate(982,882)" d="m0 0 3 1zm-1 1 4 2 3 6 1 9-3 17-2 9-3 5-4-2-7-9-3-14 1-11h2l1-5 4-6z" fill="#044685"/>
<path transform="translate(1336,896)" d="m0 0h9l7 3 9 3 5 1 2 1 1 9-1 3 2 1 2 4 3 3v2h2l2 5-3 1-2 1v2l-4-2-1-3-7-2-9-6 2-2-8-7-12-7-3-5 1-4z" fill="#074785"/>
<path transform="translate(1551,943)" d="m0 0 4 1 4 5 2 6v47h-13l-1-1v-46l7 2-1-8z" fill="#1972B3"/>
<path transform="translate(516,629)" d="m0 0h35l32 3 28 4 26 6 36 12 25 11 4 3-5-1-20-8-16-6-25-7-12-4-9-1-7-2-15-2-5-1-15-1-6-1-7-1h-69l-58 7-11 2h-8l3-2 36-6 38-4z" fill="#99A1A1"/>
<path transform="translate(983,682)" d="m0 0h6l-3 2 2 3 3 1 2 9v2l2-1h15v1l-39 3h-11l-3-3v-3l-9-3-2-1 1-3 10-3z" fill="#0288C9"/>
<path transform="translate(740,924)" d="m0 0h13l3 2 1 6-3 9-4 1-7-4h-8l-5 2-8 2-14-1-3-1-3-5 8-4 18-5 9-1z" fill="#054685"/>
<path transform="translate(1461,950)" d="m0 0 6 1 5 5 1 3v21l-4 8-2 2h-7l-4-5-2-7v-17l3-8z" fill="#FEFDFD"/>
<path transform="translate(358,694)" d="m0 0h27l4 2v6h7v1l-52 6-15 1v-6l3-4z" fill="#0A6BB4"/>
<path transform="translate(755,837)" d="m0 0h43v1h-42l1 7 3-5 6-1 10 1 2 1v4l22 1 2 2h-35v123h-1l-1-121-2 3v8l-2 9-4 1-8-7-1-6 2-2h3l1-14z" fill="#20588C"/>
<path transform="translate(231,891)" d="m0 0h1l1 24 1 84 24-2h12l-4 4-13 4-15 1-5-2-1-7h-3l-2-11v-30l2-27 1-17v-12z" fill="#022B5D"/>
<path transform="translate(1199,692)" d="m0 0h8l26 5 10 4 5 5 2 3h-12l-50-6 1-2-1-5 7-2h4z" fill="#0A6BB4"/>
<path transform="translate(614,690)" d="m0 0 8 1 24 5v14h-8l-28-5-8-1 2-1 2-6 3-3 5-1z" fill="#0276BF"/>
<path transform="translate(391,688)" d="m0 0h17l13 2 4 4-2 4 7 1v1l-26 2h-15l-1-6-7-1h-17v-2z" fill="#0276BF"/>
<path transform="translate(691,837)" d="m0 0h28l9 2 14 8 6 5-1 2-4-1-3 2-3 1-8-5-4-2-9-2h-27l3-1-1-5-2-2h2z" fill="#063B72"/>
<path transform="translate(798,837)" d="m0 0h10l2 1 1 7-1 4 5 3-2 4-7 9-1 3h-2l-1-6v-15l-30-1v-1h6v-4l-12-1-6 1-2 5-1 3h-1v-11z" fill="#073D73"/>
<path transform="translate(1409,965)" d="m0 0 3 4 4 10 1 4 2 2v3l6 1 12-4 3 7v5l-11 4h-8l-8-4-7-8 2-1 2 1-3-9v-9z" fill="#136FB3"/>
<path transform="translate(1492,968)" d="m0 0 1 3 4 1 5-2 2-2 1 20v14h-13l-1-1v-28z" fill="#1063A4"/>
<path transform="translate(1491,941)" d="m0 0h12v5l2 1-2 1 1 6 3 4-1 2-1 28h-1l-1-18-7 3-3-2-2 2z" fill="#1571B4"/>
<path transform="translate(1228,696)" d="m0 0h7l28 6 22 6 2 4-2 3h-9l-27-4-10-1v-1l10-1-6-5v-2l-10-3-5-1z" fill="#054685"/>
<path transform="translate(1015,657)" d="m0 0h63l8 1v1l-7 1h-56l-20 1-9 3-12 1-13 2h-10l-5-1v2h-5v-3l6-2 29-4z" fill="#023064"/>
<path transform="translate(1100,889)" d="m0 0 7 1 5 9 1 6v10l-4 6-4-3-5-10v-2l-4 2-2 3h-2l-1-7 3-4 4-10z" fill="#054685"/>
<path transform="translate(329,700)" d="m0 0 3 1-2 3-1 6 4 1-38 5-8 1h-10l1-3 9-3 16-4z" fill="#054685"/>
<path transform="translate(1286,993)" d="m0 0 7 2 12 6 10 2 12 1 2 1v2l-6 2h-10l-14-1-20-4-1-4 3-5z" fill="#054685"/>
<path transform="translate(1422,938)" d="m0 0h13l5 4-1 10-3 1-5-2h-6l-5 4-3 9-1 10h-1v-12l-2-2 1-8v-6l4-5 3-1z" fill="#1370B4"/>
<path transform="translate(437,871)" d="m0 0 2 3v2l4-1 1 1v5l4 1 1 8 1 7 4 11-1 4 8 2 1-4-1 13-3 12-3-1-4-16-8-26-6-17z" fill="#043164"/>
<path transform="translate(371,1016)" d="m0 0 5 4 2 5v8h-2l1 3-7 7-16 3h-13l-5 2h-9l1-3 14-4 20-3 8-2z" fill="#073264"/>
<path transform="translate(477,849)" d="m0 0h1l-1 9-13 49-2 1-1-2v-22l5-16 7-14z" fill="#022E61"/>
<path transform="translate(889,703)" d="m0 0 3 1 8 4 5 6-30 7-4-4v-5l6-4z" fill="#045CA3"/>
<path transform="translate(1173,687)" d="m0 0 8 1 18 3v3l-10 2 1 6-23-1-12-1v-1h11l-1-5 3-4 6-1z" fill="#0275BE"/>
<path transform="translate(797,209)" d="m0 0h9l17 2 25 7 5 2 1 3-11-2-18-4-16-2h-36l-7 1h-8v-1l13-2 5-2 21-1z" fill="#F6EFDE"/>
<path transform="translate(349,696)" d="m0 0 2 1 12 5 2 1v2l3 1-32 4h-7v-6l3-4z" fill="#045CA3"/>
<path transform="translate(767,104)" d="m0 0h39l24 2 7 1v1l-8 2h-14l-11-2h-32l-13 2-16-1-4-2z" fill="#F7F1E0"/>
<path transform="translate(1385,944)" d="m0 0 2 3v23l-4 12-6 11-5 5-1-3-6 1 1-4 5-7h2l2-5 4-6 2-8h2v-2h-2l3-11h1z" fill="#0E4E8A"/>
<path transform="translate(554,1013)" d="m0 0h13l2 2 24 1v1l-76 3-22 1h-12v-2l5-1z" fill="#99A1A1"/>
<path transform="translate(819 1e3)" d="m0 0 85 1v1l-137 2h-33v-1l14-2z" fill="#3272A1"/>
<path transform="translate(1220,695)" d="m0 0 8 1 11 3 4 2 5 5 2 3h-12l-32-4v-1l7-2 8-4h2v-2z" fill="#045CA3"/>
<path transform="translate(706,145)" d="m0 0h10l-4 2-24 8-22 9-15 7-7 4h-2l2-4 8-8 18-6 19-8h6z" fill="#F9F3E3"/>
<path transform="translate(871,710)" d="m0 0 2 1-1 3 1 5 3 3-26 7h-6v-4l6-5 16-8z" fill="#054685"/>
<path transform="translate(906,697)" d="m0 0 4 1 4 2 4 1 1 3v6l-6 2-10 1-4-5-8-3 1-3z" fill="#0A6BB4"/>
<path transform="translate(949,279)" d="m0 0 4 3-1 4-5 4h-2l-2 4-16 12-3 1-2-2 1-9 3-2h7l6-9h2v-2l7-3z" fill="#FFA822"/>
<path transform="translate(875,839)" d="m0 0h25l1 6-1 2h-3l2 1-1 4h7l-6 7-5 7h-1l-1-9v-11h-31v-1l23-1 2-4h-11z" fill="#033B72"/>
<path transform="translate(415,1063)" d="m0 0m-11 0h7l4 2-6 2-27 4-16 2-12 2h-5l2-5 9-1 7-2 16-2 5-1 8 1h7z" fill="#073567"/>
<path transform="translate(1053,982)" d="m0 0 7 3 11 5 4 1 1 4-1 1-12 1-11-1-6-4 2-5h2l1-4z" fill="#054685"/>
<path transform="translate(1390,981)" d="m0 0h6l5 4v10l-5 5-4 1-6-4-1-2v-8z" fill="#1163A3"/>
<path transform="translate(703,882)" d="m0 0 5 1 5 4 3 4-2 7 5 1v1l-15-1-1-2-4-1-3-6 2-5h3l1-2z" fill="#054685"/>
<path transform="translate(388,906)" d="m0 0h1l2 8v3l2 27v11l2 9 1 2h-6l-2-3z" fill="#022A5D"/>
<path transform="translate(1548,958)" d="m0 0h1l1 20 2 12-1 2h2l-1 4 3-3 1-3 1-10h2v-14h1l1 36h-13z" fill="#065EA3"/>
<path transform="translate(412,915)" d="m0 0 3 1 12 30 5 13 3 7-1 4-1-4h-2l-6-11-6-15-2-10-4-5-2-7z" fill="#093567"/>
<path transform="translate(647,672)" d="m0 0 8 1 28 8 8 3-2 5-9-2-26-8-2-3 1-2h-5z" fill="#EC4D3E"/>
<path transform="translate(525,833)" d="m0 0h1v16l2 14-3 1-2-4-6-3-5 15-3 1 2-10 5-14 5-6 3-6z" fill="#073467"/>
<path transform="translate(944,726)" d="m0 0 6 2-2 2-35 7-16 4h-6l2-1 1-2 14-5 16-4 11-1 4 1h2v-2z" fill="#053366"/>
<path transform="translate(258,997)" d="m0 0h12l-4 4-13 4-15 1-5-2-1-4z" fill="#042F61"/>
<path transform="translate(909,887)" d="m0 0 6 1 2 2-1 10-2 7-3 1-5-1-2-7 1-7z" fill="#054685"/>
<path transform="translate(721,838)" d="m0 0 7 1 14 8 6 5-1 2-4-1-3 2-3 1-2-4v-3l-8-1-3-2 1-1-7-5z" fill="#094985"/>
<path transform="translate(491,630)" d="m0 0m-11 1h11v2l-58 7-11 2h-8l3-2 36-6z" fill="#859BA4"/>
<path transform="translate(910,1009)" d="m0 0 10 1h4v2l2 1h-138v-1l120-1z" fill="#FEFCF0"/>
<path transform="translate(724,428)" d="m0 0h1l1 67 1 10v22l-2 9h-1z" fill="#FFFCF0"/>
<path transform="translate(1282,1049)" d="m0 0 14 1 25 3 2 2-2 1-21-1-26-2v-1l8-2z" fill="#399BC3"/>
<path transform="translate(1104,659)" d="m0 0h12l35 4v2l-17 1-7-3-1 2-13-2-9-2z" fill="#023469"/>
<path transform="translate(1340,683)" d="m0 0 4 3 6 11 7 10 9 15 1 6-4-2-6-12-1-5-3-1v-3h-2l-4-7-8-13z" fill="#073669"/>
<path transform="translate(437,662)" d="m0 0h6l-1 2h-3v2h-8l-16 4-2 1-12 1-3-2 2-2 30-5z" fill="#023166"/>
<path transform="translate(724,701)" d="m0 0 5 1 11 8 9 9 4 6-5-1-7-6-5-4-10-10z" fill="#023064"/>
<path transform="translate(867,586)" d="m0 0m-1 1m-2 1h2v2l-16 9-14 8-30 16-2-1 24-14 19-10z" fill="#E3D2B3"/>
<path transform="translate(1070,630)" d="m0 0 24 1 28 3 17 3v1l-14-1-23-2-30-3z" fill="#7D99A6"/>
<path transform="translate(925,644)" d="m0 0 4 1-10 4-25 9-23 10-4 2-3-1 16-8 14-6z" fill="#99A1A1"/>
<path transform="translate(398,1011)" d="m0 0h1v14l-1 2-1 9h-3l-2-5v-12l2-6z" fill="#073061"/>
<path transform="translate(773,254)" d="m0 0h38v1l-26 1-17 3h-10l-6 1h-6l4-2 16-3z" fill="#F0E6D0"/>
<path transform="translate(1270,865)" d="m0 0 1 2 4 1 6 8 1 8-3 10h-1l-3-16-5-9z" fill="#033C74"/>
<path transform="translate(289,867)" d="m0 0 4 1-2 4 4 9 3 8v6l-6-4-4-13z" fill="#0A3566"/>
<path transform="translate(488,940)" d="m0 0 1 4-3 12-5 15-4 1 2-9 7-21z" fill="#023064"/>
<path transform="translate(1520,958)" d="m0 0 2 1 1 3v28l-1 10 2 1-4 1z" fill="#0C6CB4"/>
<path transform="translate(352,973)" d="m0 0 2 1 5 10 6 4-3 1-6-3-3-2-6-1v2l-4-2 5-6h2v-3z" fill="#063568"/>
<path transform="translate(868,588)" d="m0 0h2l-2 5-3 3h-2v2l-9 3-7 1 5-5z" fill="#99A1A1"/>
<path transform="translate(799,251)" d="m0 0h10l16 2 4 2v2l-18-2-34-1v-1l22-1z" fill="#FFAF21"/>
<path transform="translate(848,849)" d="m0 0h3l2 5-2 1-2 5v19l-2 4h-1v-31h2z" fill="#0C4176"/>
<path transform="translate(308,687)" d="m0 0h6l-1 2-14 4-9 2h-13l3-2 13-3z" fill="#023166"/>
<path transform="translate(198,1076)" d="m0 0 4 1-7 3h-3v3l4 1v2l4 4-10-3-9-3v-3l11-3z" fill="#124172"/>
<path transform="translate(645,711)" d="m0 0h3v20l-1 5-8-2 4-4 1-2v-15z" fill="#022C5E"/>
<path transform="translate(1267,566)" d="m0 0 4 1 7 12 6 10 2 5-4-2v-2h-2l-5-9-3-4-3-5z" fill="#0A3A6C"/>
<path transform="translate(621,185)" d="m0 0h5l-5 4-17 12-8 7-2-3 6-4 7-7h3v-2l5-3 3-3z" fill="#F6EEDC"/>
<path transform="translate(750,255)" d="m0 0h6l-2 3-16 5-10 3v-4l9-3 3-2 10-1z" fill="#FFAE21"/>
<path transform="translate(1071,1036)" d="m0 0h9l3 2v2h10v1h-17l-13-1-2-2 9-1z" fill="#2284BB"/>
<path transform="translate(690,685)" d="m0 0 7 1 6 3-2 5-11-3-3-2h2z" fill="#FA8421"/>
<path transform="translate(857,989)" d="m0 0 7 1 2 3-7 3-9-1-1-2 4-3z" fill="#054685"/>
<path transform="translate(638,670)" d="m0 0 9 1 1 2-1 21h-1l-2-13-3-9h-3z" fill="#062B5C"/>
<path transform="translate(1065,1022)" d="m0 0 16 1 8 2v1l-18 1-11-3v-1z" fill="#197FBC"/>
<path transform="translate(412,915)" d="m0 0 3 1 5 12v5h-3l-1-4-3-4-2-7z" fill="#083466"/>
<path transform="translate(435,971)" d="m0 0 2 1 1 8-4 12-2-3v-8z" fill="#022F63"/>
<path transform="translate(232,812)" d="m0 0h1v36h-1l-1-7-1-5v-13h1z" fill="#022A5C"/>
<path transform="translate(839,601)" d="m0 0 2 1-22 12-6 3v-3l4-5 10-2z" fill="#FEFCF0"/>
<path transform="translate(479,1018)" d="m0 0h9v1h-5v2l12-1h17v1l-11 1h-26l1-3z" fill="#028DCD"/>
<path transform="translate(430,995)" d="m0 0 1 3-7 8-5 3h-5l5-4 5-6 4-1 1-2z" fill="#022E61"/>
<path transform="translate(295,922)" d="m0 0 2 1-8 9-4 8-1-3-2-1 3-8 5-2z" fill="#022F63"/>
<path transform="translate(671,746)" d="m0 0 5 5-8 1-16 16-2-1 15-15z" fill="#F4EDDF"/>
<path transform="translate(594,208)" d="m0 0v3l-7 7 1 7-5 2-3-5z" fill="#FFA621"/>
<path transform="translate(323,885)" d="m0 0h18l6 4 3 4v3h-2l-3-6-3-2h-22z" fill="#0C3C6F"/>
<path transform="translate(995,1017)" d="m0 0 26 1v1l-21 2h-7v-3z" fill="#2C85B8"/>
<path transform="translate(590,939)" d="m0 0 3 1-4 4-8 3h-18v-1l16-1 3-3z" fill="#022E62"/>
<path transform="translate(1356,710)" d="m0 0h3l8 14-1 4-3-2-6-12z" fill="#023267"/>
<path transform="translate(1026,848)" d="m0 0 5 5 6 10-1 2-6-5-2-6-3-1z" fill="#154C80"/>
<path transform="translate(1130,662)" d="m0 0h14l7 1v2l-17 1-3-2z" fill="#023064"/>
<path transform="translate(207,830)" d="m0 0 4 2 4 3 6 8-1 8-2-3-5-10z" fill="#023266"/>
<path transform="translate(728,58)" d="m0 0 8 1v1l-24 4h-7l2-2 5-2 14-1z" fill="#F2E9D5"/>
<path transform="translate(418,720)" d="m0 0 2 1 18 1v1l-8 1h-24l3-1 1-2v2z" fill="#023266"/>
<path transform="translate(812,255)" d="m0 0 14 1 10 2v1h-18l-5-2z" fill="#F5EDDA"/>
<path transform="translate(1169,851)" d="m0 0h46v3l-4-1-42-1z" fill="#03366C"/>
<path transform="translate(496,771)" d="m0 0h23l11 1-1 2h-14v-2h-19z" fill="#1A5385"/>
<path transform="translate(647,672)" d="m0 0 8 1 18 5v2l-10-2-15-4z" fill="#D1241E"/>
<path transform="translate(349,1016)" d="m0 0h18l-1 2-15 2h-10v-1l8-1z" fill="#0B3D70"/>
<path transform="translate(1452,965)" d="m0 0h1l2 15-2 2-3-3-1-3 1-6h2z" fill="#0A62A6"/>
<path transform="translate(587,913)" d="m0 0 5 2 5 6 1 6h-2l-1-3-5-5v-2h-2z" fill="#0B386A"/>
<path transform="translate(349,930)" d="m0 0h2l-1 6-6-2-8 1h-3l1-2 7-2z" fill="#023266"/>
<path transform="translate(706,145)" d="m0 0h10l-4 2-16 5h-2l1-3z" fill="#F3EAD6"/>
<path transform="translate(756,838)" d="m0 0h16l-1 2h-8l-4 2-2 7h-1z" fill="#04376D"/>
<path transform="translate(637,695)" d="m0 0 9 1v14h-8v-1h6l-1-9 1-2-7-2z" fill="#0865AE"/>
<path transform="translate(605,207)" d="m0 0 3 3-1 4-5 1-1 2-1-4-3 1v-2h2v-2l4-1z" fill="#FF9E20"/>
<path transform="translate(847,863)" d="m0 0h1l1 16-2 4h-1v-19z" fill="#04376D"/>
<path transform="translate(889,740)" d="m0 0m-9 1h9v2l-15 5h-2v-2l4-4z" fill="#023368"/>
<path transform="translate(1078,657)" d="m0 0 26 1v2h-18v-2h-8z" fill="#023870"/>
<path transform="translate(683,758)" d="m0 0 8 6 7 7-1 2-10-8-4-4z" fill="#EDE1C9"/>
<path transform="translate(1513,940)" d="m0 0h7l-4 3-5 2-6 5-1-2h2l1-4z" fill="#2B7AB1"/>
<path transform="translate(1234,726)" d="m0 0 13 1 1 3h-9l-6-1z" fill="#022A5D"/>
<path transform="translate(1442,962)" d="m0 0h1l1 10v13h-2l-1-8z" fill="#1666A4"/>
<path transform="translate(116,799)" d="m0 0 4 1-9 3h-2v2h-6l-3-3z" fill="#144879"/>
<path transform="translate(294,1082)" d="m0 0m-7 1 6 1v2l-11 3-4-1h3v-2l4-2 1 1z" fill="#0D3C6E"/>
<path transform="translate(300,1080)" d="m0 0 7 2-2 2-12 2 2-4z" fill="#023267"/>
<path transform="translate(1491,941)" d="m0 0h9l2 1v2h-8l-1 15h-1z" fill="#085A9E"/>
<path transform="translate(650,77)" d="m0 0h9l-2 2-11 4h-2l2-4z" fill="#F5EEDB"/>
<path transform="translate(1208,866)" d="m0 0 1 2 3-1 3 2-5 7h-2z" fill="#033B73"/>
<path transform="translate(1092,842)" d="m0 0h17v1l-16 1-9 2-4-2z" fill="#2E6D9C"/>
<path transform="translate(1084,1037)" d="m0 0 9 1 11 1v1l-11 1-10-1z" fill="#0277C0"/>
<path transform="translate(1158,967)" d="m0 0h3l1 4-2 3h-6v-3z" fill="#054685"/>
<path transform="translate(1543,946)" d="m0 0h4l1 5h-2l-1 3h-7v-2l3-2v-3z" fill="#0A8BC8"/>
<path transform="translate(1314,1053)" d="m0 0h7l2 2-2 1-21-1v-1z" fill="#99A1A1"/>
<path transform="translate(1387,994)" d="m0 0 2 2h9v3l-3 2-5-1-3-2z" fill="#215C8F"/>
<path transform="translate(795,182)" d="m0 0h13l9 1v1l-18 1v-2z" fill="#EFE4CD"/>
<path transform="translate(396,875)" d="m0 0h3l3 8v3h-2l-4-5 1-4-2-1z" fill="#0F3D6E"/>
<path transform="translate(676,69)" d="m0 0h5l1 2-13 4-2-1 3-3z" fill="#F5EEDC"/>
<path transform="translate(404,1063)" d="m0 0h7l4 2-6 2h-7z" fill="#022E62"/>
<path transform="translate(1479,946)" d="m0 0 3 4 2 6-5-2-2-4v-3z" fill="#1F6AA4"/>
<path transform="translate(637,801)" d="m0 0h1v18h-3l-1 3 1-9z" fill="#33658F"/>
<path transform="translate(416,1063)" d="m0 0h10l-2 2-15 2 1-2z" fill="#1E4C79"/>
<path transform="translate(1416,979)" d="m0 0h2l3 6 5 4-2 1-5-2-3-5-1-2z" fill="#1667A6"/>
<path transform="translate(1405,980)" d="m0 0 4 1 1 8-4-1-2-7z" fill="#1265A5"/>
<path transform="translate(352,726)" d="m0 0 7 2-1 2h-11l-1-3z" fill="#022E62"/>
<path transform="translate(961,724)" d="m0 0m-4 1 8 1h11v1l-22 2 1-2h2z" fill="#285B87"/>
<path transform="translate(892,152)" d="m0 0 9 3 2 2-5 1-10-4z" fill="#F6EFDE"/>
<path transform="translate(576,659)" d="m0 0h7l7 2v1l-11 1v-3z" fill="#02417A"/>
<path transform="translate(726,847)" d="m0 0 9 2 2 6-11-6z" fill="#0D4377"/>
<path transform="translate(690,768)" d="m0 0 4 2 7 4 1 2-7-1-5-6z" fill="#FBF6E7"/>
<path transform="translate(382,723)" d="m0 0 2 1 9 1-3 2h-12l2-1v-2z" fill="#022F63"/>
<path transform="translate(586,219)" d="m0 0 2 3-1 4-4 1-2-4z" fill="#FF9E20"/>
<path transform="translate(944,726)" d="m0 0 6 2-2 2-9 1v-2h2v-2z" fill="#023368"/>
<path transform="translate(655,152)" d="m0 0h6l-2 4-6 1v-3z" fill="#FFFCF0"/>
<path transform="translate(328,1019)" d="m0 0 11 1-2 2h-12l3-1z" fill="#023065"/>
<path transform="translate(949,851)" d="m0 0 7 6 4 4v3l-2 1-5-8-4-4z" fill="#04427C"/>
<path transform="translate(90,804)" d="m0 0h8l-4 3-3 1-1-1-7 1 1-2z" fill="#022E62"/>
<path transform="translate(446,635)" d="m0 0 10 1v1l-16 1 1-2z" fill="#99A1A1"/>
<path transform="translate(607,194)" d="m0 0m-1 1m-1 1m-1 1m-1 1 1 3-8 7-2-3 6-4z" fill="#F8F1E0"/>
<path transform="translate(622,786)" d="m0 0 9 1 3 1v2l-9-1z" fill="#033F78"/>
<path transform="translate(671,746)" d="m0 0 5 5-7 1-2-2z" fill="#F5EEDB"/>
<path transform="translate(855,480)" d="m0 0 4 1-10 6h-2l1-3z" fill="#F0E6D0"/>
<path transform="translate(1264,1048)" d="m0 0h6l7 2v1h-11l-3-2z" fill="#0277C0"/>
<path transform="translate(407,903)" d="m0 0h3l4 10v2l-3-1z" fill="#134373"/>
<path transform="translate(964,723)" d="m0 0h5v2h5v1l-14 1 1-2h3z" fill="#022A5C"/>
<path transform="translate(404,686)" d="m0 0h5l-2 3h-10v-2z" fill="#0280C3"/>
</svg>
